<svg width="400" height="336" viewBox="0 0 400 336" fill="none" xmlns="http://www.w3.org/2000/svg">
<path fill-rule="evenodd" clip-rule="evenodd" d="M10.956 0.413985C6.536 1.16399 3.5 3.42599 1.665 7.33699L0.612 9.58198V132.926C0.612 265.681 0.482 257.911 2.751 261.27C4.224 263.452 5.614 264.5 8.464 265.577L10.805 266.463L86.748 266.574C128.517 266.635 162.691 266.834 162.691 267.015C162.691 270.205 160.093 299.708 159.67 301.325C157.356 310.161 154.318 313.313 139.588 322.16C128.114 329.051 126.379 331.105 129.445 334.171L130.449 335.175L200.156 335.07L269.863 334.964L270.915 333.976C273.892 331.179 271.862 328.777 261.162 322.437C251.468 316.693 250.126 315.789 247.696 313.359C241.123 306.785 240.177 303.409 238.729 281.346C238.383 276.075 237.991 270.638 237.857 269.261L237.613 266.759L245.31 266.45C249.544 266.281 283.007 266.263 319.674 266.411C392.239 266.703 389.736 266.769 393.624 264.469C395.744 263.216 398.033 260.832 399.144 258.722L400 257.097V133.08V9.06298L398.375 6.62999C396.583 3.94699 394.705 2.45999 391.387 1.10199L389.195 0.203985L201.019 0.148985C97.523 0.117985 11.995 0.236985 10.956 0.413985ZM380.836 132.314V237.31L200.102 237.207L19.368 237.105L19.264 132.722C19.206 75.311 19.246 28.109 19.353 27.829C19.507 27.422 56.05 27.319 200.191 27.319H380.836V132.314ZM152.715 64.87C149.619 65.623 148.362 68.177 149.672 71.053C150.573 73.031 151.298 73.182 160.55 73.322C165.316 73.394 169.215 73.541 169.215 73.648C169.215 73.756 161.114 83.054 151.212 94.312C141.31 105.57 133.088 114.92 132.942 115.09C132.795 115.26 125.529 109.685 116.796 102.701C94.166 84.604 95.544 85.493 92.762 87.194C92.09 87.605 81.172 97.702 68.502 109.632L45.464 131.321L45.118 133.449C44.706 135.977 45.176 137.477 46.687 138.468C48.985 139.973 49.299 139.722 73.017 117.426C87.25 104.044 95.288 96.762 95.576 96.984C95.823 97.174 103.364 103.192 112.334 110.358C133.951 127.626 132.903 127.011 136.04 124.261C137.15 123.289 162.563 94.797 174.173 81.509C175.294 80.226 175.331 80.448 175.331 88.462C175.331 96.85 175.55 97.937 177.429 98.909C179.22 99.836 180.868 99.632 182.359 98.301L183.69 97.112L183.817 83.112C183.953 67.976 183.804 66.55 181.959 65.34C180.702 64.515 155.816 64.115 152.715 64.87ZM292.762 96.409V128.103L294.329 126.947C307.677 117.092 341.662 91.465 341.675 91.245C341.684 91.083 340.545 89.531 339.144 87.797C329.845 76.29 310.705 66.069 296.44 64.992L292.762 64.715V96.409ZM278.585 70.175C244.524 74.136 219.532 108.508 225.468 143.228C232.373 183.617 276.944 207.353 313.354 190.03C318.691 187.49 318.542 187.81 316.14 184.049C315.011 182.282 307.722 170.951 299.942 158.87C292.162 146.789 285.392 136.147 284.897 135.221L283.996 133.537L283.884 101.631L283.773 69.725L282.661 69.778C282.05 69.807 280.215 69.986 278.585 70.175ZM320.952 117.695C296.73 135.86 295.622 136.748 296.14 137.57C296.439 138.043 303.806 149.48 312.512 162.984L328.342 187.539L330.153 186.238C351.736 170.738 361.631 138.736 353.066 112.13C352.072 109.04 347.654 99.801 346.854 99.136C346.425 98.781 340.791 102.818 320.952 117.695ZM160.449 117.399C157.828 118.504 158.013 115.705 157.901 155.904C157.791 195.671 157.674 193.712 160.25 195.004C162.194 195.979 178.994 196.073 181.271 195.122C184.034 193.967 183.924 195.694 183.801 155.557L183.69 119.488L182.56 118.358L181.43 117.227L171.347 117.141C165.801 117.093 160.897 117.209 160.449 117.399ZM84.811 130.604C81.852 131.613 81.959 130.413 81.958 162.806C81.957 195.024 81.871 193.99 84.643 195.148C86.728 196.019 104.925 195.832 106.291 194.925C108.046 193.76 108.053 193.63 108.047 162.978C108.04 130.794 108.136 132.057 105.601 130.786C103.842 129.903 87.29 129.759 84.811 130.604ZM123.874 143.516C119.692 144.269 119.877 143.055 119.879 169.712C119.881 198.459 118.47 195.713 133.244 195.716C147.358 195.72 145.995 198.532 145.995 169.419C145.995 144.394 146.054 145.093 143.833 143.863C142.734 143.255 126.858 142.979 123.874 143.516ZM46.123 157.24C44.129 158.636 44.035 159.495 44.06 176.032C44.092 197.339 43.002 195.717 57.288 195.717C71.559 195.717 70.486 197.288 70.515 176.351C70.537 160.283 70.389 158.787 68.636 157.409C67.17 156.256 47.737 156.11 46.123 157.24Z" fill="white"/>
</svg>
